<svg width="1000" height="576" viewBox="0 0 1000 576" fill="none" xmlns="http://www.w3.org/2000/svg">
<g clip-path="url(#clip0_9_2)">
<path d="M999.059 44.0352C908.77 199.69 818.491 355.335 728.225 510.967C714.699 534.359 697.283 541.808 677.23 533.685C668.922 530.085 662.115 523.741 657.955 515.719C569.492 363.3 481.029 210.881 392.566 58.4615C379.039 34.8672 384.856 18.7556 411.773 0.352051H567.159C571.453 7.0933 572.265 14.7783 573.077 22.5307C575.833 51.9923 589.413 79.3997 611.211 99.4883C633.006 119.577 661.479 130.931 691.163 131.368C751.761 131.873 803.297 85.8646 811.176 24.2834C812.225 16.0928 812.326 7.70001 816.925 0.352051H968.827C985.127 6.0147 993.818 18.5197 999.262 34.0582L999.059 44.0352Z" fill="white"/>
<path d="M0 527.987C39.272 460.912 78.5326 393.813 117.782 326.694C168.484 239.575 219.084 152.365 269.583 65.0665C289.534 30.7874 321.795 30.4841 341.577 64.4935C428.755 214.823 515.223 365.22 603.348 514.808C621 544.739 603.348 578.647 567.368 575.748C526.552 572.378 485.296 574.569 444.243 575.243C430.919 575.479 425.847 571.872 424.63 557.749C419.321 495.528 373.195 449.89 313.949 446.519C251.66 443.148 200.733 481.405 187.443 541.907C187.071 543.559 186.598 545.278 186.327 546.829C181.83 574.872 181.83 574.872 153.694 574.872C118.255 574.872 82.6805 573.625 47.4102 575.344C25.8018 576.355 10.6859 569.378 0.0676324 551.345L0 527.987Z" fill="white"/>
</g>
<defs>
<clipPath id="clip0_9_2">
<rect width="1000" height="576" fill="white"/>
</clipPath>
</defs>
</svg>
